<svg xmlns="http://www.w3.org/2000/svg" viewBox="0 0 1000 1000"><circle cx="500" cy="500" r="500" fill="#dfecf6"/><linearGradient id="A" gradientUnits="userSpaceOnUse" x1="51.951" y1="492.27" x2="914.757" y2="492.27"><stop offset="0" stop-color="#2581c4"/><stop offset="0" stop-color="#32bce1" stop-opacity=".16"/><stop offset=".477" stop-color="#2581c4" stop-opacity=".962"/><stop offset=".967" stop-color="#312783"/></linearGradient><path d="M253.4 608.9c-11.3 0-20.4-9.5-20.4-21.2s9.1-21.2 20.4-21.2h360.7c1.5 0 2.9.1 4.4.5 12.9 2 25 5.8 35.8 11.9 11.9 6.7 22.1 16 30 28.4 27 42.5 23 82 3.9 111.2-12.4 19-31.4 33.2-52.3 40.6-21.1 7.5-44.4 8.2-65.4.2-31.9-12.1-57.7-43-61.5-98.8-.8-11.7 7.7-21.7 19-22.5 11.2-.8 20.9 8 21.7 19.7 2.5 36 16.9 55.1 34.7 61.8 12 4.5 25.8 3.9 38.5-.6 12.9-4.6 24.4-13.1 31.7-24.2 10.5-16 12-38.5-4.3-64.1-4-6.3-9.2-11-15.3-14.4-6.4-3.6-13.8-5.9-22-7.2zm-93.3-190.8c-11.3 0-20.4-9.5-20.4-21.2s9.1-21.2 20.4-21.2h359.6c8.2-1.3 15.7-3.6 22-7.2 6.1-3.4 11.3-8.2 15.3-14.4 16.3-25.6 14.7-48.1 4.3-64.1-7.3-11.2-18.8-19.6-31.7-24.2-12.7-4.5-26.5-5.1-38.5-.6-17.7 6.7-32.2 25.8-34.7 61.8-.8 11.7-10.5 20.5-21.7 19.7s-19.7-10.9-19-22.5c3.8-55.9 29.6-86.7 61.5-98.8 21.1-7.9 44.4-7.2 65.4.2 20.9 7.4 39.9 21.7 52.3 40.6 19.1 29.2 23.1 68.6-3.9 111.2-7.9 12.4-18 21.7-30 28.4-10.8 6.1-22.9 9.8-35.8 11.9-1.4.3-2.9.5-4.4.5zm-87.7 95.4c-11.3 0-20.4-9.6-20.4-21.2 0-11.7 9.1-21.2 20.4-21.2h751.8c8.2-1.3 15.7-3.6 22-7.2 6.1-3.4 11.3-8.2 15.3-14.4 16.3-25.6 14.7-48.1 4.3-64.1-7.3-11.2-18.8-19.6-31.7-24.2-12.7-4.5-26.5-5.1-38.5-.6-17.7 6.7-32.2 25.8-34.7 61.8-.8 11.7-10.5 20.5-21.7 19.7s-19.7-10.9-19-22.5c3.8-55.9 29.6-86.7 61.5-98.8 21.1-7.9 44.4-7.2 65.4.2 20.9 7.4 39.9 21.7 52.3 40.6 19.1 29.2 23.1 68.6-3.9 111.2-7.9 12.4-18 21.7-30 28.4-10.8 6.1-22.9 9.8-35.8 11.9-1.4.3-2.9.5-4.4.5z" fill="url(#A)"/></svg>
